<svg id="Layer_1" data-name="Layer 1" xmlns="http://www.w3.org/2000/svg" viewBox="0 0 1080 1920.25"><defs><style>.cls-1{fill:#0f3b1c;}</style></defs><path class="cls-1" d="M279.35,906.59c-90.5-53.86-161.09-128.23-205.74-184v320.57c0,170.55,59.13,331.48,161.7,455.22,73-104.51,118.25-231.45,146-334C407.87,1064.31,365.63,958.52,279.35,906.59Zm-12.67,50s-15.69,54.5-70.59,54.5c-54.3,0-70.59-54.5-70.59-54.5Zm-70.59,311.6c-54.3,0-70.59-54.5-70.59-54.5H266.08C266.68,1213.7,250.39,1268.2,196.09,1268.2Zm94.72-118.61c-54.3,0-70.59-54.5-70.59-54.5H360.8C361.41,1095.09,345.12,1149.59,290.81,1149.59Z"/><path class="cls-1" d="M371.06,235.94c-56.71-17.31-106.19-32.69-147.82-55.14C306.5,98.74,418.12,48.73,540,48.73s233.5,50,316.76,131.43C815.13,202.6,765.05,218,708.34,235.3c-9.66,3.21-19.31,5.77-29,9-79,25-119.46,76.94-140,128.23-20.52-51.29-60.94-103.23-140-128.23C390.37,241.71,380.71,239.15,371.06,235.94Z"/><path class="cls-1" d="M813.32,432.78c0,26.93-20.52,48.73-45.86,48.73s-45.85-21.8-45.85-48.73,20.51-48.73,45.85-48.73C792.2,384.05,813.32,405.85,813.32,432.78Z"/><path class="cls-1" d="M318.57,384.05c-25.34,0-45.86,21.8-45.86,48.73s20.52,48.73,45.86,48.73,45.85-21.8,45.85-48.73S343.91,384.05,318.57,384.05Zm0,0c-25.34,0-45.86,21.8-45.86,48.73s20.52,48.73,45.86,48.73,45.85-21.8,45.85-48.73S343.91,384.05,318.57,384.05Zm0,0c-25.34,0-45.86,21.8-45.86,48.73s20.52,48.73,45.86,48.73,45.85-21.8,45.85-48.73S343.91,384.05,318.57,384.05Zm0,0c-25.34,0-45.86,21.8-45.86,48.73s20.52,48.73,45.86,48.73,45.85-21.8,45.85-48.73S343.91,384.05,318.57,384.05Zm0,0c-25.34,0-45.86,21.8-45.86,48.73s20.52,48.73,45.86,48.73,45.85-21.8,45.85-48.73S343.91,384.05,318.57,384.05Zm0,0c-25.34,0-45.86,21.8-45.86,48.73s20.52,48.73,45.86,48.73,45.85-21.8,45.85-48.73S343.91,384.05,318.57,384.05ZM921.92,259.67a505.3,505.3,0,0,0-35-46.17c-48.27,28.21-105.59,46.17-167.13,65.4-9.65,3.21-18.71,5.77-29,9C543,334,559.91,495.61,561.12,502.66l3,25H515.26l3-25c.6-6.41,17.5-168-129.72-214.78-9.66-3.21-19.31-5.77-29-9-61.54-19.23-118.26-36.54-167.13-64.76-12.07,14.75-24.14,30.14-34.39,46.17C104.38,341.09,73,439.19,73,545.62V652.69c35,49.37,115.84,150.67,226.25,216.07,103.78,61.55,153.86,188.5,121.88,308.39-29,108.36-77.23,243-156.87,354.56A660.16,660.16,0,0,0,391,1636.22c7.85,5.13,16.29,9.62,24.14,14.75l27.75,16L540,1722.13l92.92-52.57,32-18.59c6.64-3.85,13.28-7.7,19.91-12.19a657.6,657.6,0,0,0,130.93-107.07c-79.64-111.56-127.91-246.2-156.87-354.56-32-119.89,18.1-246.84,121.88-308.39,111-66,191.26-166.7,226.25-216.07V545C1007,438.55,975.62,340.45,921.92,259.67ZM318.57,525.74c-48.27,0-87.49-41.67-87.49-93s39.22-93,87.49-93,87.49,41.68,87.49,93S366.84,525.74,318.57,525.74Zm448.29,0c-48.27,0-87.49-41.67-87.49-93s39.22-93,87.49-93,87.49,41.68,87.49,93C855,484.07,815.13,525.74,766.86,525.74ZM318.57,384.05c-25.34,0-45.86,21.8-45.86,48.73s20.52,48.73,45.86,48.73,45.85-21.8,45.85-48.73S343.91,384.05,318.57,384.05Zm0,0c-25.34,0-45.86,21.8-45.86,48.73s20.52,48.73,45.86,48.73,45.85-21.8,45.85-48.73S343.91,384.05,318.57,384.05Zm0,0c-25.34,0-45.86,21.8-45.86,48.73s20.52,48.73,45.86,48.73,45.85-21.8,45.85-48.73S343.91,384.05,318.57,384.05Zm0,0c-25.34,0-45.86,21.8-45.86,48.73s20.52,48.73,45.86,48.73,45.85-21.8,45.85-48.73S343.91,384.05,318.57,384.05Zm0,0c-25.34,0-45.86,21.8-45.86,48.73s20.52,48.73,45.86,48.73,45.85-21.8,45.85-48.73S343.91,384.05,318.57,384.05Zm0,0c-25.34,0-45.86,21.8-45.86,48.73s20.52,48.73,45.86,48.73,45.85-21.8,45.85-48.73S343.91,384.05,318.57,384.05Zm0,0c-25.34,0-45.86,21.8-45.86,48.73s20.52,48.73,45.86,48.73,45.85-21.8,45.85-48.73S343.91,384.05,318.57,384.05Z"/><path class="cls-1" d="M801.25,906.59c-86.88,51.29-128.51,157.72-102,257.74,27.16,102.59,72.41,228.89,146,334C947.87,1374.63,1007,1213.7,1007,1043.8V723.22C962.35,778.36,891.75,852.73,801.25,906.59Zm-74.81,188.5H867s-15.69,54.5-70.6,54.5C742.12,1149.59,726.44,1095.09,726.44,1095.09ZM891.75,1268.2c-54.3,0-70.59-54.5-70.59-54.5H961.74S946.06,1268.2,891.75,1268.2Zm0-256.46c-54.3,0-70.59-54.5-70.59-54.5H961.74C961.74,956.6,946.06,1011.74,891.75,1011.74Z"/><path class="cls-1" d="M1080,9.62c-25.34,134.64-82.66,205.17-157.47,250.05-54.91,32.7-120.07,51.93-188.85,71.81-10.26,3.2-19.91,5.77-30.77,9C592.49,373.15,572,464.83,569.56,514.2v22.44a73.22,73.22,0,0,0,.61,8.34l4.22,35.26H505.61L509.83,545a73.22,73.22,0,0,0,.61-8.34,137.75,137.75,0,0,1,0-22.44C508,465.48,487.51,373.79,377.09,341.09c-10.25-3.2-20.51-5.77-30.77-9C277.54,312.24,213,293.65,157.47,260.31,82.66,215.43,25.34,144.9,0,10.26L46.46.64c27.15,114.13,78.43,174.39,146,213.5,48.27,28.22,105,45.53,167.13,64.76,9.65,3.21,18.7,5.77,29,9C536.38,334,519.49,495.61,518.28,502.66l-3,25h48.87l-3-25c-.61-7.05-17.5-168,129.72-214.78,9.65-3.21,19.31-5.77,29-9,61.54-19.23,118.86-36.54,167.13-65.4,67-39.11,118.86-99.37,146-213.5Z"/><polygon class="cls-1" points="400.08 1603.79 456.03 1622.02 376.25 1898.46 320.3 1880.22 400.08 1603.79"/><polygon class="cls-1" points="675.53 1603.56 755.32 1880 699.37 1898.23 619.59 1621.8 675.53 1603.56"/><rect class="cls-1" x="80.85" y="1858.06" width="942.44" height="62.19"/></svg>