<svg id="Layer_1" data-name="Layer 1" xmlns="http://www.w3.org/2000/svg" viewBox="0 0 1920 1080"><defs><style>.cls-1{fill:#522730;}</style></defs><path class="cls-1" d="M917.3,532.15c-15-8.4-26.7-20-34.1-28.7v50a107.33,107.33,0,0,0,26.8,71c12.1-16.3,19.6-36.1,24.2-52.1A35.24,35.24,0,0,0,917.3,532.15Zm-2.1,7.8s-2.6,8.5-11.7,8.5-11.7-8.5-11.7-8.5Zm-11.7,48.6c-9,0-11.7-8.5-11.7-8.5h23.3C915.2,580.05,912.5,588.55,903.5,588.55Zm15.7-18.5c-9,0-11.7-8.5-11.7-8.5h23.3C930.9,561.55,928.2,570.05,919.2,570.05Z"/><path class="cls-1" d="M932.5,427.55c-9.4-2.7-17.6-5.1-24.5-8.6a77.34,77.34,0,0,1,105-.1c-6.9,3.5-15.2,5.9-24.6,8.6-1.6.5-3.2.9-4.8,1.4-13.1,3.9-19.8,12-23.2,20-3.4-8-10.1-16.1-23.2-20C935.7,428.45,934.1,428.05,932.5,427.55Z"/><path class="cls-1" d="M1005.8,458.25a7.6,7.6,0,1,1-7.6-7.6A7.6,7.6,0,0,1,1005.8,458.25Z"/><path class="cls-1" d="M923.8,450.65a7.6,7.6,0,1,0,7.6,7.6A7.6,7.6,0,0,0,923.8,450.65Zm0,0a7.6,7.6,0,1,0,7.6,7.6A7.6,7.6,0,0,0,923.8,450.65Zm0,0a7.6,7.6,0,1,0,7.6,7.6A7.6,7.6,0,0,0,923.8,450.65Zm0,0a7.6,7.6,0,1,0,7.6,7.6A7.6,7.6,0,0,0,923.8,450.65Zm0,0a7.6,7.6,0,1,0,7.6,7.6A7.6,7.6,0,0,0,923.8,450.65Zm0,0a7.6,7.6,0,1,0,7.6,7.6A7.6,7.6,0,0,0,923.8,450.65Zm100-19.4a79.42,79.42,0,0,0-5.8-7.2c-8,4.4-17.5,7.2-27.7,10.2-1.6.5-3.1.9-4.8,1.4-24.5,7.2-21.7,32.4-21.5,33.5l.5,3.9h-8.1l.5-3.9c.1-1,2.9-26.2-21.5-33.5-1.6-.5-3.2-.9-4.8-1.4-10.2-3-19.6-5.7-27.7-10.1a78.29,78.29,0,0,0-5.7,7.2,76.73,76.73,0,0,0-14.1,44.5v16.7c5.8,7.7,19.2,23.5,37.5,33.7a41.93,41.93,0,0,1,20.2,48.1c-4.8,16.9-12.8,37.9-26,55.3a108.28,108.28,0,0,0,21,16.3c1.3.8,2.7,1.5,4,2.3l4.6,2.5,16.1,8.6,15.4-8.2,5.3-2.9c1.1-.6,2.2-1.2,3.3-1.9a108,108,0,0,0,21.7-16.7c-13.2-17.4-21.2-38.4-26-55.3a41.93,41.93,0,0,1,20.2-48.1c18.4-10.3,31.7-26,37.5-33.7v-16.8A76.73,76.73,0,0,0,1023.8,431.25Zm-100,41.5a14.5,14.5,0,1,1,14.5-14.5A14.51,14.51,0,0,1,923.8,472.75Zm74.3,0a14.5,14.5,0,1,1,14.5-14.5A14.51,14.51,0,0,1,998.1,472.75Zm-74.3-22.1a7.6,7.6,0,1,0,7.6,7.6A7.6,7.6,0,0,0,923.8,450.65Zm0,0a7.6,7.6,0,1,0,7.6,7.6A7.6,7.6,0,0,0,923.8,450.65Zm0,0a7.6,7.6,0,1,0,7.6,7.6A7.6,7.6,0,0,0,923.8,450.65Zm0,0a7.6,7.6,0,1,0,7.6,7.6A7.6,7.6,0,0,0,923.8,450.65Zm0,0a7.6,7.6,0,1,0,7.6,7.6A7.6,7.6,0,0,0,923.8,450.65Zm0,0a7.6,7.6,0,1,0,7.6,7.6A7.6,7.6,0,0,0,923.8,450.65Zm0,0a7.6,7.6,0,1,0,7.6,7.6A7.6,7.6,0,0,0,923.8,450.65Z"/><path class="cls-1" d="M1003.8,532.15a35.06,35.06,0,0,0-16.9,40.2c4.5,16,12,35.7,24.2,52.1a107.26,107.26,0,0,0,26.8-70.9v-50C1030.5,512.15,1018.8,523.75,1003.8,532.15Zm-12.4,29.4h23.3s-2.6,8.5-11.7,8.5S991.4,561.55,991.4,561.55Zm27.4,27c-9,0-11.7-8.5-11.7-8.5h23.3S1027.8,588.55,1018.8,588.55Zm0-40c-9,0-11.7-8.5-11.7-8.5h23.3C1030.4,540,1027.8,548.55,1018.8,548.55Z"/><path class="cls-1" d="M1050,392.25c-4.2,21-13.7,32-26.1,39-9.1,5.1-19.9,8.1-31.3,11.2-1.7.5-3.3.9-5.1,1.4-18.3,5.1-21.7,19.4-22.1,27.1v3.5a10.87,10.87,0,0,0,.1,1.3l.7,5.5H954.8l.7-5.5a10.87,10.87,0,0,0,.1-1.3,20.44,20.44,0,0,1,0-3.5c-.4-7.6-3.8-21.9-22.1-27-1.7-.5-3.4-.9-5.1-1.4-11.4-3.1-22.1-6-31.3-11.2-12.4-7-21.9-18-26.1-39l7.7-1.5c4.5,17.8,13,27.2,24.2,33.3,8,4.4,17.4,7.1,27.7,10.1,1.6.5,3.1.9,4.8,1.4,24.5,7.2,21.7,32.4,21.5,33.5l-.5,3.9h8.1l-.5-3.9c-.1-1.1-2.9-26.2,21.5-33.5,1.6-.5,3.2-.9,4.8-1.4,10.2-3,19.7-5.7,27.7-10.2,11.1-6.1,19.7-15.5,24.2-33.3Z"/><rect class="cls-1" x="912.79" y="659.02" width="45.1" height="9.7" transform="translate(26.39 1363.44) rotate(-72.95)"/><rect class="cls-1" x="980.09" y="641.29" width="9.7" height="45.1" transform="translate(-151.36 317.98) rotate(-17.05)"/><rect class="cls-1" x="884.4" y="680.55" width="156.2" height="9.7"/></svg>